<?xml version="1.0" encoding="UTF-8"?>
<svg xmlns="http://www.w3.org/2000/svg" xmlns:xlink="http://www.w3.org/1999/xlink" viewBox="0 0 60 60" width="60px" height="60px">
<g id="surface74196682">
<path style=" stroke:none;fill-rule:nonzero;fill:rgb(100%,100%,100%);fill-opacity:1;" d="M 50.222656 25.601562 L 50.222656 23.753906 L 46.71875 23.753906 L 45.179688 23.726562 C 43.863281 23.726562 42.960938 24.59375 42.609375 25.601562 L 42.609375 23.757812 L 38.683594 23.757812 L 38.683594 35.730469 L 42.609375 35.730469 L 42.609375 29.1875 C 42.609375 27.992188 43.574219 27.027344 44.769531 27.027344 L 46.300781 27.027344 L 46.300781 35.730469 L 50.222656 35.730469 L 50.222656 29.1875 C 50.222656 27.992188 51.191406 27.023438 52.386719 27.023438 L 54.335938 27.023438 L 54.335938 23.753906 L 52.792969 23.726562 C 51.476562 23.726562 50.574219 24.59375 50.222656 25.601562 Z M 22.304688 24.003906 L 20.199219 30.925781 L 18.09375 24.003906 L 14.171875 24.003906 L 18.433594 35.980469 L 21.964844 35.980469 L 26.226562 24.003906 Z M 6.273438 24.003906 L 6.273438 23.207031 C 6.273438 22.507812 6.839844 21.941406 7.539062 21.941406 L 10.015625 21.941406 L 10.015625 18.65625 L 6.613281 18.65625 C 4.261719 18.65625 2.351562 20.5625 2.351562 22.921875 L 2.351562 24.007812 L 0.0546875 24.007812 L 0.0546875 27.179688 L 2.351562 27.179688 L 2.351562 35.980469 L 6.273438 35.980469 L 6.273438 27.179688 L 10.015625 27.179688 L 10.015625 35.980469 L 13.941406 35.980469 L 13.941406 24.007812 L 6.273438 24.007812 Z M 31.664062 23.84375 L 31.1875 23.84375 C 27.972656 23.84375 25.367188 26.449219 25.367188 29.660156 L 25.367188 30.320312 C 25.367188 33.535156 27.972656 36.140625 31.1875 36.140625 L 32.25 36.140625 C 34.449219 36.140625 36.335938 34.78125 37.109375 32.859375 L 33.648438 31.847656 C 33.648438 31.847656 33.234375 33.035156 31.789062 33.035156 C 30.160156 33.035156 29.296875 32.140625 29.183594 31.128906 L 29.183594 31.125 C 29.175781 31.050781 29.171875 30.976562 29.171875 30.902344 L 37.488281 30.902344 L 37.488281 29.664062 C 37.484375 26.449219 34.878906 23.84375 31.664062 23.84375 Z M 29.175781 28.59375 C 29.222656 27.515625 30.109375 26.65625 31.195312 26.65625 L 31.570312 26.65625 C 32.65625 26.65625 33.542969 27.515625 33.59375 28.59375 Z M 57.507812 31.378906 C 56.160156 31.378906 55.066406 32.46875 55.066406 33.816406 C 55.066406 35.164062 56.160156 36.257812 57.507812 36.257812 C 58.855469 36.257812 59.949219 35.164062 59.949219 33.816406 C 59.949219 32.46875 58.855469 31.378906 57.507812 31.378906 Z M 57.507812 31.378906 "/>
</g>
</svg>
